<svg width="13" height="14" viewBox="0 0 13 14" fill="none" xmlns="http://www.w3.org/2000/svg">
<path d="M11.1525 5.07878C11.1472 4.68495 11.0735 4.29503 10.9346 3.92646C10.8141 3.61558 10.6302 3.33325 10.3944 3.09749C10.1587 2.86174 9.87632 2.67776 9.56544 2.5573C9.20162 2.42073 8.81725 2.34688 8.42872 2.3389C7.92848 2.31654 7.76988 2.3103 6.50004 2.3103C5.2302 2.3103 5.06744 2.3103 4.57084 2.3389C4.18248 2.34694 3.7983 2.42079 3.43464 2.5573C3.12371 2.67768 2.84133 2.86163 2.60557 3.09739C2.36981 3.33315 2.18586 3.61553 2.06548 3.92646C1.92863 4.29001 1.85495 4.67428 1.8476 5.06266C1.82524 5.56342 1.81848 5.72202 1.81848 6.99186C1.81848 8.2617 1.81848 8.42394 1.8476 8.92106C1.8554 9.31002 1.92872 9.69378 2.06548 10.0583C2.18606 10.3691 2.37015 10.6514 2.60599 10.8871C2.84183 11.1227 3.12423 11.3066 3.43516 11.4269C3.79783 11.569 4.18208 11.6481 4.57136 11.6609C5.07212 11.6833 5.23072 11.6901 6.50056 11.6901C7.7704 11.6901 7.93316 11.6901 8.42976 11.6609C8.81828 11.6533 9.20267 11.5796 9.56648 11.4431C9.87728 11.3225 10.1595 11.1384 10.3953 10.9027C10.631 10.667 10.815 10.3847 10.9356 10.0739C11.0724 9.7099 11.1457 9.32614 11.1535 8.93666C11.1759 8.43642 11.1826 8.27782 11.1826 7.00746C11.1816 5.73762 11.1816 5.57642 11.1525 5.07878ZM6.49692 9.39322C5.16884 9.39322 4.09296 8.31734 4.09296 6.98926C4.09296 5.66118 5.16884 4.5853 6.49692 4.5853C7.13449 4.5853 7.74595 4.83858 8.19678 5.28941C8.64761 5.74024 8.90088 6.35169 8.90088 6.98926C8.90088 7.62683 8.64761 8.23829 8.19678 8.68912C7.74595 9.13995 7.13449 9.39322 6.49692 9.39322ZM8.99656 5.05694C8.92293 5.05701 8.85 5.04256 8.78196 5.01441C8.71392 4.98627 8.6521 4.94498 8.60003 4.89291C8.54797 4.84084 8.50668 4.77902 8.47853 4.71098C8.45039 4.64294 8.43593 4.57002 8.436 4.49638C8.436 4.4228 8.45049 4.34994 8.47865 4.28197C8.50681 4.21399 8.54808 4.15222 8.60011 4.10019C8.65214 4.04816 8.71391 4.00689 8.78188 3.97873C8.84986 3.95058 8.92272 3.93608 8.9963 3.93608C9.06988 3.93608 9.14274 3.95058 9.21072 3.97873C9.2787 4.00689 9.34047 4.04816 9.39249 4.10019C9.44452 4.15222 9.48579 4.21399 9.51395 4.28197C9.54211 4.34994 9.5566 4.4228 9.5566 4.49638C9.5566 4.8063 9.30596 5.05694 8.99656 5.05694Z" fill="#D3D3D7"/>
<path d="M6.49685 8.55061C7.35927 8.55061 8.05841 7.85148 8.05841 6.98905C8.05841 6.12662 7.35927 5.42749 6.49685 5.42749C5.63442 5.42749 4.93529 6.12662 4.93529 6.98905C4.93529 7.85148 5.63442 8.55061 6.49685 8.55061Z" fill="#D3D3D7"/>
</svg>
