<svg width="13" height="14" viewBox="0 0 13 14" fill="none" xmlns="http://www.w3.org/2000/svg">
<path d="M2.85123 4.50257C3.4796 4.50257 3.98899 3.99318 3.98899 3.36481C3.98899 2.73644 3.4796 2.22705 2.85123 2.22705C2.22286 2.22705 1.71347 2.73644 1.71347 3.36481C1.71347 3.99318 2.22286 4.50257 2.85123 4.50257Z" fill="#D3D3D7"/>
<path d="M5.06327 5.3645V11.6768H7.02315V8.55522C7.02315 7.73154 7.17811 6.93386 8.19939 6.93386C9.20663 6.93386 9.21911 7.87558 9.21911 8.60722V11.6773H11.18V8.21566C11.18 6.51526 10.8139 5.2085 8.82651 5.2085C7.87231 5.2085 7.23271 5.73214 6.97115 6.2277H6.94463V5.3645H5.06327ZM1.86943 5.3645H3.83243V11.6768H1.86943V5.3645Z" fill="#D3D3D7"/>
</svg>
