<svg width="13" height="14" viewBox="0 0 13 14" fill="none" xmlns="http://www.w3.org/2000/svg">
<g clip-path="url(#clip0_106_285)">
<path d="M12.5544 3.32727C12.1202 3.51967 11.6537 3.64967 11.1634 3.70843C11.6693 3.40568 12.0479 2.92919 12.2283 2.36787C11.753 2.65022 11.2327 2.84897 10.6902 2.95547C10.3253 2.56592 9.84208 2.30772 9.31546 2.22096C8.78884 2.13419 8.2483 2.22372 7.77778 2.47564C7.30725 2.72756 6.93306 3.12778 6.71329 3.61416C6.49353 4.10053 6.44049 4.64586 6.56241 5.16547C5.59921 5.11711 4.65694 4.86676 3.79675 4.43066C2.93657 3.99457 2.17769 3.38247 1.56937 2.63411C1.36137 2.99291 1.24177 3.40891 1.24177 3.85195C1.24154 4.25079 1.33976 4.64352 1.52771 4.99529C1.71566 5.34707 1.98754 5.64701 2.31921 5.86851C1.93456 5.85627 1.55839 5.75233 1.22201 5.56535V5.59655C1.22197 6.15593 1.41547 6.69811 1.76967 7.13107C2.12387 7.56403 2.61695 7.86111 3.16525 7.97191C2.80842 8.06848 2.43431 8.08271 2.07117 8.01351C2.22587 8.49483 2.52721 8.91572 2.933 9.21727C3.3388 9.51882 3.82873 9.68592 4.33421 9.69519C3.47613 10.3688 2.41639 10.7342 1.32549 10.7326C1.13225 10.7326 0.939173 10.7214 0.747253 10.6988C1.85458 11.4108 3.14359 11.7886 4.46005 11.7871C8.91645 11.7871 11.3527 8.09619 11.3527 4.89507C11.3527 4.79107 11.3501 4.68603 11.3454 4.58203C11.8192 4.23934 12.2283 3.81498 12.5533 3.32883L12.5544 3.32727Z" fill="#D3D3D7"/>
</g>
<defs>
<clipPath id="clip0_106_285">
<rect width="12.48" height="12.48" fill="white" transform="translate(0.260071 0.76001)"/>
</clipPath>
</defs>
</svg>
