<svg width="28" height="28" viewBox="0 0 28 28" fill="none" xmlns="http://www.w3.org/2000/svg">
<g id="vuesax/linear/box-time">
<g id="vuesax/linear/box-time_2">
<g id="box-time">
<g id="Group">
<g id="Group_2">
<path id="Vector" d="M3.69873 8.67999L14.0004 14.6416L24.232 8.71496" stroke="white" stroke-width="1.5" stroke-linecap="round" stroke-linejoin="round"/>
<path id="Vector_2" d="M14.0005 25.2116V14.6299" stroke="white" stroke-width="1.5" stroke-linecap="round" stroke-linejoin="round"/>
</g>
<path id="Vector_3" d="M25.2119 10.6983V17.3017C25.2119 17.36 25.2119 17.4066 25.2002 17.465C24.3836 16.7533 23.3336 16.3333 22.1669 16.3333C21.0702 16.3333 20.0552 16.7183 19.2502 17.36C18.1769 18.2117 17.5002 19.53 17.5002 21C17.5002 21.875 17.7452 22.7033 18.1769 23.4033C18.2819 23.59 18.4102 23.765 18.5502 23.9283L16.4152 25.1067C15.0852 25.8534 12.9152 25.8534 11.5852 25.1067L5.35522 21.6533C3.94355 20.8717 2.78857 18.9117 2.78857 17.3017V10.6983C2.78857 9.08832 3.94355 7.12834 5.35522 6.34667L11.5852 2.89331C12.9152 2.14665 15.0852 2.14665 16.4152 2.89331L22.6452 6.34667C24.0569 7.12834 25.2119 9.08832 25.2119 10.6983Z" stroke="white" stroke-width="1.5" stroke-linecap="round" stroke-linejoin="round"/>
</g>
<g id="Group_3">
<path id="Vector_4" d="M26.8333 21C26.8333 22.4 26.215 23.6483 25.2467 24.5C24.4184 25.2233 23.345 25.6666 22.1667 25.6666C19.5883 25.6666 17.5 23.5783 17.5 21C17.5 19.53 18.1767 18.2117 19.25 17.36C20.055 16.7183 21.07 16.3333 22.1667 16.3333C24.745 16.3333 26.8333 18.4216 26.8333 21Z" stroke="white" stroke-width="1.5" stroke-miterlimit="10" stroke-linecap="round" stroke-linejoin="round"/>
<path id="Vector_5" d="M22.4583 19.5416V21.2916L21 22.1666" stroke="white" stroke-width="1.5" stroke-miterlimit="10" stroke-linecap="round" stroke-linejoin="round"/>
</g>
</g>
</g>
</g>
</svg>
