<svg width="25" height="19" viewBox="0 0 25 19" fill="none" xmlns="http://www.w3.org/2000/svg">
<g id="XMLID_1_">
<path id="XMLID_2_" d="M4.52546 18.9522V17.6916C4.52546 17.2086 4.22607 16.8935 3.7156 16.8935C3.45696 16.8935 3.18474 16.9805 2.98725 17.2488C2.83731 17.0207 2.62672 16.8935 2.30695 16.8935C2.09587 16.8935 1.87848 16.9537 1.70816 17.1885V16.9337H1.26562V18.9522H1.71496V17.8389C1.71496 17.4836 1.90566 17.3157 2.20505 17.3157C2.50444 17.3157 2.65438 17.5037 2.65438 17.8389V18.9522H3.10371V17.8389C3.10371 17.4836 3.31479 17.3157 3.5938 17.3157C3.89319 17.3157 4.04313 17.5037 4.04313 17.8389V18.9522H4.52546ZM11.1601 16.9337H10.4318V16.3234H9.98246V16.9337H9.57437V17.3358H9.98246V18.2612C9.98246 18.7241 10.1732 18.9991 10.6831 18.9991C10.8738 18.9991 11.0912 18.9388 11.2344 18.8513L11.1053 18.4759C10.9762 18.5629 10.8263 18.583 10.7244 18.583C10.5133 18.583 10.425 18.4558 10.425 18.2478V17.3425H11.1533V16.9337H11.1601ZM14.9503 16.8935C14.6917 16.8935 14.5219 17.0207 14.4195 17.1885V16.9337H13.9701V18.9522H14.4195V17.8188C14.4195 17.4836 14.5694 17.2957 14.8479 17.2957C14.9363 17.2957 15.0386 17.3157 15.127 17.3358L15.256 16.9136C15.1682 16.8935 15.0386 16.8935 14.9503 16.8935ZM9.21384 17.1015C9.00276 16.9537 8.70337 16.8935 8.38359 16.8935C7.87312 16.8935 7.53297 17.1484 7.53297 17.5439C7.53297 17.8791 7.7916 18.067 8.23366 18.134L8.44473 18.1541C8.67619 18.1942 8.80527 18.2612 8.80527 18.3621C8.80527 18.5099 8.63495 18.617 8.33556 18.617C8.03616 18.617 7.8047 18.5099 7.65525 18.4089L7.44417 18.7442C7.67563 18.912 7.9954 18.9991 8.31518 18.9991C8.91396 18.9991 9.25411 18.7241 9.25411 18.3487C9.25411 17.9934 8.9751 17.8054 8.55343 17.7385L8.34235 17.7184C8.15165 17.6983 8.0022 17.6581 8.0022 17.5305C8.0022 17.3827 8.15214 17.3024 8.38311 17.3024C8.64174 17.3024 8.89358 17.4095 9.02265 17.4702L9.21384 17.1015ZM21.1153 16.8935C20.8567 16.8935 20.6868 17.0207 20.5844 17.1885V16.9337H20.1351V18.9522H20.5844V17.8188C20.5844 17.4836 20.7344 17.2957 21.0129 17.2957C21.1012 17.2957 21.2036 17.3157 21.2919 17.3358L21.421 16.9136C21.3264 16.8935 21.1968 16.8935 21.1153 16.8935ZM15.3992 17.9398C15.3992 18.55 15.8276 18.9929 16.4881 18.9929C16.7874 18.9929 16.9985 18.9326 17.2164 18.7647L17.0053 18.4094C16.835 18.5366 16.6652 18.5974 16.4745 18.5974C16.1139 18.5974 15.8553 18.3425 15.8553 17.947C15.8553 17.5716 16.1139 17.3167 16.4745 17.2966C16.6652 17.2966 16.835 17.3569 17.0053 17.4846L17.2164 17.1292C17.0053 16.9614 16.7879 16.9011 16.4881 16.9011C15.8281 16.8935 15.3992 17.3363 15.3992 17.9398ZM19.5368 17.9398V16.9337H19.0875V17.1885C18.9375 17.0006 18.7269 16.8935 18.4479 16.8935C17.8695 16.8935 17.427 17.3363 17.427 17.9465C17.427 18.5567 17.8763 18.9995 18.4479 18.9995C18.7473 18.9995 18.9584 18.8924 19.0875 18.7045V18.9594H19.5368V17.9398ZM17.8967 17.9398C17.8967 17.5845 18.1282 17.2894 18.5159 17.2894C18.8764 17.2894 19.135 17.5644 19.135 17.9398C19.135 18.2951 18.8764 18.5902 18.5159 18.5902C18.1282 18.5701 17.8967 18.3018 17.8967 17.9398ZM12.5411 16.8935C11.9423 16.8935 11.5202 17.3157 11.5202 17.9465C11.5202 18.5768 11.9486 18.9995 12.5683 18.9995C12.8677 18.9995 13.1671 18.9125 13.3985 18.7246L13.1875 18.4094C13.0171 18.5366 12.8065 18.6175 12.5887 18.6175C12.3097 18.6175 12.0374 18.4902 11.9695 18.1345H13.4801V17.9666C13.5009 17.3091 13.1195 16.8935 12.5411 16.8935ZM12.5411 17.2689C12.8201 17.2689 13.0108 17.4367 13.0516 17.7519H11.9831C12.0311 17.4836 12.2213 17.2689 12.5411 17.2689ZM23.6536 17.9398V16.136H23.2042V17.189C23.0543 17.0011 22.8437 16.894 22.5647 16.894C21.9863 16.894 21.5438 17.3368 21.5438 17.947C21.5438 18.5572 21.9931 19 22.5647 19C22.8641 19 23.0752 18.8929 23.2042 18.705V18.9599H23.6536V17.9398ZM22.0067 17.9398C22.0067 17.5845 22.2381 17.2894 22.6258 17.2894C22.9864 17.2894 23.245 17.5644 23.245 17.9398C23.245 18.2951 22.9864 18.5902 22.6258 18.5902C22.2449 18.5701 22.0067 18.3018 22.0067 17.9398ZM7.04288 17.9398V16.9337H6.59355V17.1885C6.44361 17.0006 6.23302 16.8935 5.954 16.8935C5.3756 16.8935 4.93306 17.3363 4.93306 17.9465C4.93306 18.5567 5.38239 18.9995 5.954 18.9995C6.2534 18.9995 6.46447 18.8924 6.59355 18.7045V18.9594H7.04288V17.9398ZM5.38288 17.9398C5.38288 17.5845 5.61434 17.2894 6.00204 17.2894C6.36257 17.2894 6.62121 17.5644 6.62121 17.9398C6.62121 18.2951 6.36257 18.5902 6.00204 18.5902C5.61385 18.5701 5.38288 18.3018 5.38288 17.9398Z" fill="black"/>
<path id="XMLID_17_" d="M15.787 1.61621H9.0708V13.5066H15.787V1.61621Z" fill="#FF5F00"/>
<path id="XMLID_18_" d="M9.49273 7.5649C9.49273 5.15087 10.6427 3.00463 12.4119 1.61637C11.112 0.610204 9.47235 0 7.67599 0C3.43646 0 0 3.38003 0 7.5649C0 11.7431 3.42967 15.1298 7.67599 15.1298C9.46556 15.1298 11.1057 14.5196 12.4119 13.5134C10.6427 12.1453 9.49273 9.97942 9.49273 7.5649Z" fill="#EB001B"/>
<path id="XMLID_19_" d="M24.8441 7.5649C24.8441 11.7431 21.4144 15.1298 17.1681 15.1298C15.3785 15.1298 13.7384 14.5196 12.4321 13.5134C14.2217 12.1252 15.3513 9.98611 15.3513 7.5649C15.3513 5.15087 14.2013 3.00463 12.4321 1.61637C13.7321 0.610204 15.3717 0 17.1681 0C21.4144 0.000478216 24.8441 3.4006 24.8441 7.5649Z" fill="#F79E1B"/>
</g>
</svg>
