<svg width="37" height="23" viewBox="0 0 37 23" fill="none" xmlns="http://www.w3.org/2000/svg">
<g id="paypal logo">
<path id="Vector" d="M8.61545 7.79009C8.22781 7.52448 7.72196 7.39136 7.09791 7.39136H4.68194C4.49064 7.39136 4.38494 7.48672 4.36487 7.67725L3.38345 13.8173C3.37325 13.8776 3.38839 13.9328 3.42873 13.9829C3.46884 14.0332 3.51928 14.0581 3.5797 14.0581H4.72727C4.92854 14.0581 5.03917 13.963 5.05948 13.7722L5.33124 12.1169C5.34116 12.0367 5.37656 11.9714 5.43697 11.9212C5.49734 11.8711 5.57285 11.8383 5.66345 11.8233C5.75405 11.8084 5.83948 11.8008 5.92016 11.8008C6.00061 11.8008 6.09619 11.8059 6.2071 11.8159C6.31773 11.8259 6.38825 11.8308 6.41848 11.8308C7.28414 11.8308 7.96362 11.5877 8.45696 11.1009C8.95007 10.6144 9.1969 9.9398 9.1969 9.07675C9.1969 8.48482 9.00291 8.05597 8.61545 7.78995V7.79009ZM7.36981 9.63376C7.31931 9.98498 7.18861 10.2156 6.97722 10.326C6.76579 10.4366 6.46381 10.4916 6.07127 10.4916L5.57294 10.5066L5.8297 8.89625C5.84973 8.78599 5.91513 8.73079 6.02594 8.73079H6.31293C6.71539 8.73079 7.0075 8.78861 7.1887 8.90379C7.36981 9.01925 7.43022 9.26264 7.36981 9.63376Z" fill="#003087"/>
<path id="Vector_2" d="M34.1115 7.3913H32.9943C32.8832 7.3913 32.8179 7.4465 32.7979 7.55694L31.8164 13.8175L31.8013 13.8476C31.8013 13.898 31.8214 13.9455 31.8618 13.9906C31.9018 14.0357 31.9524 14.0583 32.0127 14.0583H33.0094C33.2004 14.0583 33.3061 13.9632 33.3266 13.7724L34.308 7.61716V7.60221C34.3079 7.46168 34.2423 7.39148 34.1115 7.39148V7.3913Z" fill="#009CDE"/>
<path id="Vector_3" d="M20.6123 9.81456C20.6123 9.76451 20.592 9.71677 20.552 9.67173C20.5116 9.62661 20.4663 9.60388 20.4161 9.60388H19.2534C19.1425 9.60388 19.0519 9.6543 18.9816 9.75435L17.381 12.1021L16.7166 9.84474C16.6661 9.68434 16.5555 9.60388 16.3845 9.60388H15.2518C15.2014 9.60388 15.1561 9.62651 15.1161 9.67173C15.0757 9.71677 15.0557 9.76461 15.0557 9.81456C15.0557 9.83476 15.1538 10.1306 15.3501 10.7025C15.5463 11.2746 15.7577 11.8916 15.9842 12.5538C16.2108 13.2159 16.329 13.5672 16.3391 13.607C15.5136 14.7309 15.101 15.3329 15.101 15.413C15.101 15.5435 15.1663 15.6087 15.2973 15.6087H16.4599C16.5706 15.6087 16.6612 15.5586 16.7318 15.4583L20.5823 9.91986C20.6022 9.89998 20.6123 9.86502 20.6123 9.81452V9.81456Z" fill="#003087"/>
<path id="Vector_4" d="M31.4393 9.60387H30.2917C30.1506 9.60387 30.0653 9.76947 30.0351 10.1006C29.773 9.69942 29.2952 9.49854 28.6005 9.49854C27.8757 9.49854 27.259 9.76948 26.7508 10.3113C26.2424 10.8531 25.9883 11.4903 25.9883 12.2227C25.9883 12.8147 26.1619 13.2862 26.5091 13.6372C26.8564 13.9886 27.3219 14.164 27.906 14.164C28.1979 14.164 28.4949 14.1037 28.7968 13.9834C29.0988 13.863 29.3352 13.7026 29.5066 13.5018C29.5066 13.5119 29.4963 13.5569 29.4765 13.6371C29.4561 13.7175 29.4462 13.7779 29.4462 13.8177C29.4462 13.9784 29.5114 14.0585 29.6425 14.0585H30.6845C30.8755 14.0585 30.9864 13.9633 31.0165 13.7726L31.6357 9.84464C31.6456 9.78438 31.6305 9.72932 31.5903 9.67908C31.5499 9.62904 31.4997 9.60387 31.4393 9.60387ZM29.4688 12.5688C29.2121 12.8196 28.9025 12.9449 28.5401 12.9449C28.2481 12.9449 28.0117 12.8648 27.8304 12.7042C27.6491 12.544 27.5585 12.3233 27.5585 12.042C27.5585 11.6711 27.6844 11.3573 27.9362 11.1015C28.1875 10.8456 28.4998 10.7177 28.8723 10.7177C29.1539 10.7177 29.388 10.8005 29.5744 10.9659C29.7605 11.1315 29.8539 11.3598 29.8539 11.6508C29.8538 12.012 29.7255 12.3181 29.4688 12.5688Z" fill="#009CDE"/>
<path id="Vector_5" d="M14.2856 9.60387H13.138C12.9969 9.60387 12.9115 9.76947 12.8812 10.1006C12.6094 9.69942 12.1312 9.49854 11.4467 9.49854C10.7219 9.49854 10.1053 9.76948 9.59698 10.3113C9.08855 10.8531 8.83447 11.4903 8.83447 12.2227C8.83447 12.8147 9.00815 13.2862 9.35546 13.6372C9.70277 13.9886 10.1682 14.164 10.7522 14.164C11.0339 14.164 11.326 14.1037 11.6279 13.9834C11.9299 13.863 12.1715 13.7026 12.3527 13.5018C12.3123 13.6221 12.2923 13.7275 12.2923 13.8177C12.2923 13.9784 12.3577 14.0585 12.4886 14.0585H13.5305C13.7216 14.0585 13.8325 13.9633 13.8627 13.7726L14.4818 9.84464C14.4917 9.78438 14.4766 9.72932 14.4365 9.67908C14.3962 9.62904 14.3459 9.60387 14.2856 9.60387ZM12.3151 12.5762C12.0583 12.8223 11.7436 12.9449 11.3714 12.9449C11.0793 12.9449 10.8452 12.8648 10.6692 12.7042C10.4929 12.544 10.4049 12.3233 10.4049 12.042C10.4049 11.6711 10.5307 11.3573 10.7824 11.1015C11.0339 10.8456 11.346 10.7177 11.7186 10.7177C12.0003 10.7177 12.2344 10.8005 12.4208 10.9659C12.6069 11.1315 12.7001 11.3598 12.7001 11.6508C12.7001 12.022 12.5718 12.3307 12.3151 12.5762Z" fill="#003087"/>
<path id="Vector_6" d="M25.7694 7.79009C25.3818 7.52448 24.876 7.39136 24.2519 7.39136H21.8509C21.6496 7.39136 21.5388 7.48672 21.5188 7.67725L20.5373 13.8173C20.5271 13.8776 20.5422 13.9328 20.5826 13.9829C20.6225 14.0332 20.6731 14.0581 20.7335 14.0581H21.9716C22.0924 14.0581 22.1729 13.993 22.2133 13.8625L22.4851 12.1169C22.4951 12.0367 22.5303 11.9714 22.5908 11.9212C22.6512 11.8711 22.7267 11.8383 22.8174 11.8233C22.9079 11.8084 22.9933 11.8008 23.074 11.8008C23.1545 11.8008 23.25 11.8059 23.3609 11.8159C23.4715 11.8259 23.5422 11.8308 23.5722 11.8308C24.4381 11.8308 25.1174 11.5877 25.6108 11.1009C26.1041 10.6144 26.3507 9.9398 26.3507 9.07675C26.3507 8.48482 26.1568 8.05592 25.7694 7.78995V7.79009ZM24.2217 10.2658C24.0002 10.4162 23.6679 10.4914 23.2251 10.4914L22.7418 10.5065L22.9986 8.89616C23.0185 8.78594 23.0839 8.73065 23.1948 8.73065H23.4665C23.688 8.73065 23.8641 8.74072 23.9952 8.76073C24.1258 8.78088 24.2519 8.84349 24.3726 8.94878C24.4935 9.05417 24.5538 9.20725 24.5538 9.40781C24.5538 9.82936 24.443 10.1152 24.2217 10.2658Z" fill="#009CDE"/>
</g>
</svg>
