<svg width="34" height="13" viewBox="0 0 34 13" fill="none" xmlns="http://www.w3.org/2000/svg">
<g id="Visa logo" clip-path="url(#clip0_485_745)">
<path id="Vector" d="M22.1454 0.514648C19.7313 0.514648 17.5739 1.87436 17.5739 4.38652C17.5739 7.26748 21.4001 7.46645 21.4001 8.91377C21.4001 9.52318 20.7574 10.0687 19.6597 10.0687C18.1019 10.0687 16.9375 9.30646 16.9375 9.30646L16.4394 11.8415C16.4394 11.8415 17.7806 12.4854 19.5614 12.4854C22.2008 12.4854 24.2777 11.0589 24.2777 8.50382C24.2777 5.45954 20.4356 5.26646 20.4356 3.92313C20.4356 3.44568 20.9632 2.92264 22.0578 2.92264C23.2927 2.92264 24.3003 3.47701 24.3003 3.47701L24.7879 1.0286C24.7879 1.0286 23.6916 0.514648 22.1454 0.514648ZM0.0584705 0.699451L0 1.06902C0 1.06902 1.01564 1.27098 1.93038 1.67391C3.10816 2.1359 3.19209 2.40488 3.39044 3.24024L5.55194 12.2948H8.44953L12.9134 0.699451H10.0225L7.15419 8.58318L5.98376 1.90054C5.87642 1.13574 5.33269 0.699451 4.66716 0.699451H0.0584705ZM14.0759 0.699451L11.8081 12.2948H14.5648L16.8247 0.699414H14.0759V0.699451ZM29.4511 0.699451C28.7863 0.699451 28.4341 1.08618 28.1757 1.76197L24.1369 12.2948H27.0278L27.5871 10.5393H31.1091L31.4492 12.2948H34L31.7747 0.699451H29.4511ZM29.8271 3.83215L30.684 8.18329H28.3882L29.8271 3.83215Z" fill="#1434CB"/>
</g>
<defs>
<clipPath id="clip0_485_745">
<rect width="34" height="12" fill="white" transform="translate(0 0.5)"/>
</clipPath>
</defs>
</svg>
